<svg width="40" height="41" viewBox="0 0 40 41" fill="none" xmlns="http://www.w3.org/2000/svg">
<g filter="url(#filter0_d_3_80)">
<path d="M20.163 32.043H20.142C19.857 32.043 17.949 32.026 5.33398 32.002C4.98009 32.0017 4.64077 31.861 4.39062 31.6106C4.14048 31.3603 4 31.0209 4 30.667V1.333C4.00053 0.979456 4.14127 0.640558 4.39136 0.390658C4.64144 0.140758 4.98044 0.000264431 5.33398 0L34.667 0C35.0204 0.000264858 35.3593 0.140791 35.6093 0.390719C35.8592 0.640648 35.9997 0.979548 36 1.333V30.667C35.9995 31.0204 35.8589 31.3591 35.609 31.609C35.3591 31.8589 35.0204 31.9995 34.667 32C22.24 32.024 20.439 32.038 20.183 32.041L20.163 32.043ZM20.5 6C17.7162 6.00318 15.0473 7.11044 13.0789 9.07889C11.1104 11.0473 10.0032 13.7162 10 16.5C10.0032 19.2838 11.1104 21.9527 13.0789 23.9211C15.0473 25.8896 17.7162 26.9968 20.5 27C23.2838 26.9968 25.9527 25.8896 27.9211 23.9211C29.8896 21.9527 30.9968 19.2838 31 16.5C30.9968 13.7162 29.8896 11.0473 27.9211 9.07889C25.9527 7.11044 23.2838 6.00318 20.5 6V6ZM31.5 2C30.837 2 30.201 2.26339 29.7322 2.73223C29.2633 3.20107 29 3.83696 29 4.5C29 5.16304 29.2633 5.79893 29.7322 6.26777C30.201 6.73661 30.837 7 31.5 7C31.8283 7 32.1534 6.93534 32.4567 6.8097C32.76 6.68406 33.0357 6.49991 33.2678 6.26777C33.5 6.03562 33.6841 5.76002 33.8097 5.45671C33.9353 5.15339 34 4.8283 34 4.5C34 3.83696 33.7367 3.20107 33.2678 2.73223C32.799 2.26339 32.163 2 31.5 2V2ZM20.5 23C18.7767 22.9979 17.1247 22.3124 15.9061 21.0939C14.6876 19.8753 14.0021 18.2233 14 16.5C14.0019 14.7767 14.6873 13.1244 15.9059 11.9059C17.1245 10.6873 18.7767 10.0019 20.5 10C22.2233 10.0019 23.8755 10.6873 25.0941 11.9059C26.3127 13.1244 26.9981 14.7767 27 16.5C26.9979 18.2233 26.3124 19.8753 25.0939 21.0939C23.8753 22.3124 22.2233 22.9979 20.5 23V23Z" fill="white"/>
<path d="M5.33494 31.502H5.33436C5.113 31.5018 4.90076 31.4138 4.74431 31.2572C4.58788 31.1007 4.5 30.8884 4.5 30.667V1.33342C4.50042 1.1124 4.58844 0.900565 4.74478 0.744344C4.90116 0.588079 5.11312 0.500212 5.33418 0.5H34.6668C34.8877 0.500212 35.0995 0.588056 35.2557 0.744273C35.412 0.900544 35.4998 1.11243 35.5 1.33337V30.6663C35.4997 30.8873 35.4117 31.0992 35.2555 31.2554C35.0992 31.4117 34.8873 31.4997 34.6662 31.5H34.666C22.2405 31.524 20.4362 31.538 20.1771 31.541L20.1552 31.5413L20.1381 31.543C20.0913 31.543 20.0043 31.5425 19.8424 31.5417C18.9708 31.5374 15.93 31.5222 5.33494 31.502ZM9.5 16.4994L9.5 16.5006C9.50333 19.4168 10.6632 22.2126 12.7253 24.2747C14.7874 26.3367 17.5832 27.4967 20.4994 27.5L20.5006 27.5C23.4168 27.4967 26.2126 26.3367 28.2747 24.2747C30.3368 22.2126 31.4967 19.4168 31.5 16.5006L31.5 16.4994C31.4967 13.5832 30.3368 10.7874 28.2747 8.72533C26.2126 6.66326 23.4168 5.50333 20.5006 5.5L20.5 6L20.4994 5.5C17.5832 5.50333 14.7874 6.66326 12.7253 8.72533C10.6632 10.7874 9.50333 13.5832 9.5 16.4994ZM16.2594 12.2594C17.3843 11.1346 18.9093 10.5019 20.5 10.5C22.0907 10.5019 23.6157 11.1346 24.7406 12.2594C25.8654 13.3842 26.4981 14.9092 26.5 16.4999C26.4979 18.0906 25.8651 19.6155 24.7403 20.7403C23.6156 21.8651 22.0907 22.4979 20.5 22.5C18.9094 22.4979 17.3844 21.8651 16.2597 20.7403C15.1349 19.6155 14.5021 18.0906 14.5 16.4999C14.5019 14.9092 15.1346 13.3842 16.2594 12.2594ZM31.5 1.5C30.7044 1.5 29.9412 1.81606 29.3786 2.37868C28.816 2.94131 28.5 3.70438 28.5 4.5C28.5 5.29562 28.816 6.05869 29.3786 6.62132C29.9412 7.18394 30.7044 7.5 31.5 7.5C31.894 7.5 32.284 7.4224 32.648 7.27164C33.0119 7.1209 33.3428 6.89994 33.6214 6.62132C33.9 6.34271 34.1209 6.01198 34.2716 5.64805C34.4224 5.28408 34.5 4.89397 34.5 4.5C34.5 3.70438 34.184 2.94131 33.6214 2.37868C33.0588 1.81606 32.2956 1.5 31.5 1.5Z" stroke="black"/>
</g>
<defs>
<filter id="filter0_d_3_80" x="0" y="0" width="40" height="40.043" filterUnits="userSpaceOnUse" color-interpolation-filters="sRGB">
<feFlood flood-opacity="0" result="BackgroundImageFix"/>
<feColorMatrix in="SourceAlpha" type="matrix" values="0 0 0 0 0 0 0 0 0 0 0 0 0 0 0 0 0 0 127 0" result="hardAlpha"/>
<feOffset dy="4"/>
<feGaussianBlur stdDeviation="2"/>
<feComposite in2="hardAlpha" operator="out"/>
<feColorMatrix type="matrix" values="0 0 0 0 0 0 0 0 0 0 0 0 0 0 0 0 0 0 0.25 0"/>
<feBlend mode="normal" in2="BackgroundImageFix" result="effect1_dropShadow_3_80"/>
<feBlend mode="normal" in="SourceGraphic" in2="effect1_dropShadow_3_80" result="shape"/>
</filter>
</defs>
</svg>
